<?xml version="1.0" encoding="UTF-8"?>
<svg xmlns="http://www.w3.org/2000/svg" viewBox="0 0 256 256">
  <defs>
    <style>
      .cls-1, .cls-2 {
        fill: #fff;
      }

      .cls-2 {
        stroke: #000;
        stroke-miterlimit: 10;
        stroke-width: 1.5px;
      }
    </style>
  </defs>
  <rect class="cls-1" width="256" height="256"/>
  <g id="Layer_1" data-name="Layer 1">
    <g>
      <rect class="cls-2" x="4.583" y="6.807" width="246.834" height="242.386"/>
      <g>
        <path d="M37.211,148.124l1.4-67.339,3.78.28-1.54,67.06c-.094,4.948.862,8.729,2.87,11.341,2.006,2.613,5.016,3.92,9.03,3.92.28,0,.42.279.42.84s-.14.84-.42.84c-2.054,0-4.154-.046-6.3-.14-2.148-.092-4.574-.141-7.28-.141-2.8,0-5.344.049-7.63.141-2.288.094-4.458.14-6.51.14-.28,0-.42-.28-.42-.84s.14-.84.42-.84c3.826,0,6.79-1.307,8.89-3.92,2.1-2.612,3.196-6.393,3.29-11.341ZM136.331,163.385c.186,0,.279.279.279.84s-.094.84-.279.84c-2.428,0-5.135-.046-8.121-.14-2.986-.092-6.113-.141-9.379-.141s-6.324.049-9.17.141c-2.848.094-5.438.14-7.77.14-.188,0-.28-.28-.28-.84s.092-.84.28-.84c4.48,0,7.372-.606,8.68-1.82,1.306-1.212,1.82-3.826,1.54-7.84l-2.94-63.98,6.16-9.66-35.84,84c-.094.375-.468.561-1.12.561s-1.074-.186-1.26-.561l-37.94-74.899c-3.36-6.626-7.748-9.94-13.16-9.94-.28,0-.42-.28-.42-.84s.14-.84.42-.84c1.772,0,3.662.048,5.67.14,2.006.094,3.71.14,5.11.14,2.052,0,3.896-.046,5.53-.14,1.632-.092,2.916-.14,3.85-.14,1.306,0,2.31.444,3.01,1.33.7.888,1.842,2.87,3.43,5.95l31.5,61.74-6.02,10.641,33.18-76.16c.56-1.212,1.166-2.1,1.82-2.66.652-.56,1.446-.84,2.38-.84.84,0,1.75.048,2.73.14.98.094,2.17.14,3.57.14,2.8,0,5.179-.046,7.14-.14,1.959-.092,3.871-.14,5.74-.14.279,0,.42.28.42.84s-.141.84-.42.84c-4.295,0-7.469.794-9.52,2.38-2.055,1.588-2.989,4.294-2.801,8.12l3.08,63.98c.186,2.708.535,4.76,1.049,6.16.514,1.399,1.541,2.334,3.08,2.8,1.541.468,3.803.7,6.791.7Z"/>
        <path d="M198.63,76.024c3.266,0,6.415.164,9.449.49,3.032.328,5.88.794,8.54,1.4,2.66.608,5.062,1.424,7.21,2.45.746.374,1.236.749,1.471,1.12.231.374.396,1.074.489,2.1l1.681,18.48c0,.28-.234.468-.7.56-.468.094-.794-.046-.98-.42-2.428-7.56-6.02-13.37-10.779-17.43-4.761-4.06-10.734-6.09-17.92-6.09-6.908,0-13.021,1.704-18.341,5.11-5.319,3.408-9.474,8.26-12.46,14.56-2.987,6.3-4.479,13.79-4.479,22.47,0,6.348.91,12.181,2.729,17.5,1.82,5.32,4.387,9.895,7.7,13.721,3.312,3.828,7.162,6.789,11.55,8.89,4.387,2.1,9.192,3.149,14.42,3.149,7,0,12.74-1.819,17.221-5.46,4.479-3.64,8.399-9.331,11.76-17.079.092-.28.372-.372.84-.28.466.094.7.233.7.42l-1.82,16.66c-.094,1.12-.258,1.844-.489,2.17-.234.328-.725.678-1.471,1.05-4.574,1.868-9.054,3.198-13.439,3.99-4.389.792-8.868,1.189-13.44,1.189-9.988,0-18.854-1.89-26.6-5.67-7.748-3.779-13.839-9.1-18.271-15.96-4.434-6.859-6.649-14.722-6.649-23.59,0-6.72,1.306-12.88,3.92-18.48,2.611-5.6,6.275-10.406,10.989-14.42,4.712-4.012,10.242-7.116,16.591-9.31,6.346-2.192,13.206-3.29,20.58-3.29Z"/>
      </g>
    </g>
  </g>
</svg>